<svg id="Vector_Smart_Object" data-name="Vector Smart Object" xmlns="http://www.w3.org/2000/svg" xmlns:xlink="http://www.w3.org/1999/xlink" width="57" height="68" viewBox="0 0 57 68">
  <defs>
    <clipPath id="clip-path">
      <rect id="Rectangle_58" data-name="Rectangle 58" width="57" height="68" transform="translate(-0.166 -0.1)" fill="none"/>
    </clipPath>
  </defs>
  <g id="Group_273" data-name="Group 273" transform="translate(0.166 0.1)">
    <g id="Group_272" data-name="Group 272" transform="translate(0)" clip-path="url(#clip-path)">
      <path id="Path_449" data-name="Path 449" d="M56.875,11.816V26.457L28.438,15.979,0,26.457V11.816A2.144,2.144,0,0,1,1.393,9.834L27.7.149a1.912,1.912,0,0,1,1.479,0l26.3,9.685a2.144,2.144,0,0,1,1.393,1.982" transform="translate(-0.266 -0.237)" fill="#d1403f"/>
      <path id="Path_450" data-name="Path 450" d="M56.875,56.553v8.014c0,25.8-27.613,33.36-27.9,33.445l-.54.057-.54-.057C27.613,97.928,0,90.367,0,64.568V56.553L28.438,46.075Z" transform="translate(-0.266 -30.333)" fill="#e24c4b"/>
      <path id="Path_451" data-name="Path 451" d="M68.064,81.357a2.12,2.12,0,0,0-1.7-1.424l-8.21-1.249-3.691-7.83a2.225,2.225,0,0,0-3.859,0l-3.691,7.83L38.7,79.933A2.122,2.122,0,0,0,37.5,83.515l6,6.125-1.422,8.674a2.119,2.119,0,0,0,.879,2.079,2.143,2.143,0,0,0,2.261.122l7.317-4.027,7.314,4.027a2.133,2.133,0,0,0,3.14-2.2L61.566,89.64l6-6.125a2.115,2.115,0,0,0,.495-2.158" transform="translate(-24.363 -45.789)" fill="#fafafa"/>
      <path id="Path_452" data-name="Path 452" d="M28.438.02h-.165A1.985,1.985,0,0,0,27.7.162L1.393,9.847A2.144,2.144,0,0,0,0,11.829V26.47L28.438,15.992Z" transform="translate(-0.267 -0.25)" fill="#c13d3d"/>
      <path id="Path_453" data-name="Path 453" d="M28.438,46.076,0,56.554v8.014c0,25.8,27.613,33.36,27.9,33.445l.54.057V81.033L21.124,85.06a2.132,2.132,0,0,1-3.142-2.2L19.4,74.188l-6-6.125a2.122,2.122,0,0,1,1.206-3.582l8.21-1.249,3.691-7.83a2.075,2.075,0,0,1,1.931-1.124Z" transform="translate(-0.267 -30.334)" fill="#d34848"/>
      <path id="Path_454" data-name="Path 454" d="M52.534,69.724A2.08,2.08,0,0,0,50.6,70.843l-3.691,7.83L38.7,79.922A2.122,2.122,0,0,0,37.5,83.5l6,6.125L42.078,98.3a2.126,2.126,0,0,0,2.107,2.464,2.152,2.152,0,0,0,1.032-.263l7.317-4.024Z" transform="translate(-24.363 -45.781)" fill="#dadada"/>
      <path id="Path_455" data-name="Path 455" d="M79.29,104.77H77.53V103.69a2.617,2.617,0,0,0,2.229-1.124h1.085v10.221H79.29Z" transform="translate(-50.909 -67.233)" fill="#d1403f"/>
    </g>
  </g>
</svg>
