<svg id="Vector_Smart_Object" data-name="Vector Smart Object" xmlns="http://www.w3.org/2000/svg" xmlns:xlink="http://www.w3.org/1999/xlink" width="39" height="47" viewBox="0 0 39 47">
  <defs>
    <clipPath id="clip-path">
      <rect id="Rectangle_59" data-name="Rectangle 59" width="39" height="47" transform="translate(-0.31 -0.115)" fill="none"/>
    </clipPath>
  </defs>
  <g id="Group_275" data-name="Group 275" transform="translate(0.31 0.115)">
    <g id="Group_274" data-name="Group 274" clip-path="url(#clip-path)">
      <path id="Path_456" data-name="Path 456" d="M38.495,8.078v10.01L19.247,10.924,0,18.088V8.078A1.465,1.465,0,0,1,.943,6.723L18.747.1a1.282,1.282,0,0,1,1,0l17.8,6.622a1.465,1.465,0,0,1,.943,1.355" transform="translate(0.722 0.313)" fill="#d1403f"/>
      <path id="Path_457" data-name="Path 457" d="M38.495,38.664v5.479c0,17.638-18.689,22.807-18.882,22.865l-.366.039-.366-.039C18.689,66.951,0,61.781,0,44.143V38.664L19.247,31.5Z" transform="translate(0.722 -20.263)" fill="#e24c4b"/>
      <path id="Path_458" data-name="Path 458" d="M46.068,55.622a1.439,1.439,0,0,0-1.151-.974l-5.557-.854-2.5-5.353a1.5,1.5,0,0,0-2.612,0l-2.5,5.353-5.557.854a1.454,1.454,0,0,0-.816,2.449l4.063,4.188-.962,5.93a1.455,1.455,0,0,0,.595,1.421,1.439,1.439,0,0,0,1.53.083l4.952-2.753,4.95,2.753a1.434,1.434,0,0,0,1.53-.083,1.462,1.462,0,0,0,.595-1.421l-.962-5.93L45.733,57.1a1.457,1.457,0,0,0,.335-1.475" transform="translate(-15.587 -30.829)" fill="#fafafa"/>
      <path id="Path_459" data-name="Path 459" d="M19.248.014h-.112a1.333,1.333,0,0,0-.389.1L.943,6.732A1.465,1.465,0,0,0,0,8.087V18.1l19.248-7.164Z" transform="translate(0.722 0.304)" fill="#c13d3d"/>
      <path id="Path_460" data-name="Path 460" d="M19.248,31.5,0,38.664v5.479C0,61.782,18.689,66.951,18.882,67.009l.366.039V55.4L14.3,58.153a1.443,1.443,0,0,1-1.532-.081,1.463,1.463,0,0,1-.595-1.421l.962-5.93L9.069,46.533a1.457,1.457,0,0,1-.335-1.475,1.439,1.439,0,0,1,1.151-.974l5.557-.854,2.5-5.353a1.4,1.4,0,0,1,1.307-.769Z" transform="translate(0.722 -20.263)" fill="#d34848"/>
      <path id="Path_461" data-name="Path 461" d="M35.557,47.668a1.406,1.406,0,0,0-1.307.765l-2.5,5.353-5.557.854a1.455,1.455,0,0,0-.816,2.449l4.063,4.188-.962,5.93a1.455,1.455,0,0,0,.595,1.421,1.445,1.445,0,0,0,1.53.083l4.952-2.751Z" transform="translate(-15.587 -30.824)" fill="#dadada"/>
      <path id="Path_462" data-name="Path 462" d="M54.33,74.76v.649a1.678,1.678,0,1,1-3.354,0V75.2l1.012-.1v.23c0,.559.238.8.645.8s.645-.24.645-.7V74.7c0-.559-.238-.8-.794-.8h-.417v-1h.347c.556,0,.794-.24.794-.8v-.539a.554.554,0,0,0-.6-.629c-.377,0-.6.22-.6.729v.16H51.006v-.24a1.628,1.628,0,1,1,3.255,0v.459a1.394,1.394,0,0,1-.744,1.338,1.4,1.4,0,0,1,.814,1.378" transform="translate(-32.575 -45.37)" fill="#d1403f"/>
    </g>
  </g>
</svg>
